<svg id="icons" xmlns="http://www.w3.org/2000/svg" viewBox="0 0 128 128"><defs><style>.cls-1{fill:#fff;}.cls-2,.cls-5{fill:#303442;}.cls-2{opacity:0.08;}.cls-3{fill:#ffe300;}.cls-4{fill:#92d5ed;}.cls-6{fill:none;stroke:#303442;stroke-linecap:round;stroke-linejoin:round;stroke-width:4px;}</style></defs><title>browser-windows</title><path class="cls-1" d="M110,38V88a3.9989,3.9989,0,0,1-4,4h-6V40a3.98939,3.98939,0,0,0-.54-2Z"/><path class="cls-2" d="M110,82v6a4,4,0,0,1-4,4h-6V82Z"/><path class="cls-3" d="M110,30v8H99.46A3.98,3.98,0,0,0,96,36H28V30a3.9989,3.9989,0,0,1,4-4h74A3.9989,3.9989,0,0,1,110,30Z"/><path class="cls-4" d="M26,42a2,2,0,1,0-2,2A2.00588,2.00588,0,0,0,26,42Zm6,0a2,2,0,1,0-2,2A2.00588,2.00588,0,0,0,32,42Zm2,0a2,2,0,1,0,2-2A2.00588,2.00588,0,0,0,34,42Zm66-2v8H18V40a3.9989,3.9989,0,0,1,4-4H96a4.00974,4.00974,0,0,1,4,4Z"/><path class="cls-1" d="M100,92v6a3.9989,3.9989,0,0,1-4,4H22a3.9989,3.9989,0,0,1-4-4V48h82Z"/><path class="cls-2" d="M100,92v6a3.99891,3.99891,0,0,1-4,4H22a3.99891,3.99891,0,0,1-4-4V92Z"/><circle class="cls-5" cx="36" cy="42" r="2"/><circle class="cls-5" cx="30" cy="42" r="2"/><circle class="cls-5" cx="24" cy="42" r="2"/><path class="cls-6" d="M100,92v6a3.9989,3.9989,0,0,1-4,4H22a3.9989,3.9989,0,0,1-4-4V40a3.9989,3.9989,0,0,1,4-4H96a4.00974,4.00974,0,0,1,4,4V92Z"/><path class="cls-6" d="M100,92h6a3.9989,3.9989,0,0,0,4-4V30a3.9989,3.9989,0,0,0-4-4H32a3.9989,3.9989,0,0,0-4,4v6"/><line class="cls-6" x1="18" y1="48" x2="100" y2="48"/><line class="cls-6" x1="110" y1="38" x2="99.46" y2="38"/></svg>